<svg width="75" height="75" viewBox="0 0 75 75" fill="none" xmlns="http://www.w3.org/2000/svg">
<path d="M21.9021 11.4813C20.9426 11.4985 20.0783 11.7356 19.3605 12.2006C18.267 12.9096 17.6372 14.0908 17.447 15.3265C17.0669 17.7983 18.1424 20.652 20.3565 22.9891C22.5703 25.326 26.0219 27.0995 30.4688 27.0995H30.8259L29.4902 24.4285C26.2392 24.2009 23.8564 22.8498 22.2705 21.1758C20.5295 19.3382 19.8472 17.0649 20.053 15.7281C20.1558 15.0595 20.4048 14.666 20.7945 14.4135C21.1841 14.161 21.8364 13.9924 22.956 14.2193C24.8717 14.6075 27.9706 16.2624 32.0681 19.9738L32.2661 19.7753H35.695C30.5227 14.6776 26.5815 12.2638 23.4797 11.6351C23.0971 11.5563 22.709 11.5071 22.3188 11.4878C22.1781 11.4811 22.0392 11.4789 21.9021 11.4813ZM53.0979 11.4813C52.9608 11.4791 52.8219 11.4812 52.6812 11.4878C52.3059 11.5054 51.918 11.5544 51.5205 11.6351C48.4185 12.2638 44.4772 14.6776 39.3051 19.7753H42.7337L42.9318 19.9736C47.0292 16.2623 50.1281 14.6075 52.0438 14.2191C53.1634 13.9921 53.8157 14.1608 54.2054 14.4134C54.595 14.6659 54.844 15.0594 54.9469 15.7278C55.1527 17.0646 54.4704 19.3379 52.7294 21.1755C51.1434 22.8498 48.7607 24.2007 45.5096 24.4284L44.1741 27.0995H44.5312C48.9781 27.0995 52.4297 25.3262 54.6435 22.9891C56.8576 20.652 57.9331 17.7983 57.553 15.3265C57.3628 14.0908 56.733 12.9096 55.6395 12.2006C54.9217 11.7356 54.0574 11.4985 53.0979 11.4813ZM33.3589 22.412L32.0728 23.6977L33.6275 26.8065H41.3729L42.9271 23.6977L41.6414 22.412H33.3592H33.3589ZM10.6934 29.4432V36.1815H31.4941V29.4432H10.6934ZM34.1309 29.4432V68.994H40.8691V29.4432H34.1309ZM43.5059 29.4432V36.1815H64.3066V29.4432H43.5059ZM15.3809 38.8182V68.994H31.4941V38.8182H15.3809ZM43.5059 38.8182V68.994H59.6191V38.8182H43.5059Z" fill="white"/>
</svg>
